<svg width="18" height="15" viewBox="0 0 18 15" fill="none" xmlns="http://www.w3.org/2000/svg">
<path d="M14.75 6.375C14.2812 6.375 13.875 6.5625 13.5625 6.875C12.4375 6.09375 10.9375 5.59375 9.28125 5.5625L10.1562 1.65625L12.9062 2.28125C12.9062 2.9375 13.4375 3.5 14.125 3.5C14.8125 3.5 15.375 2.9375 15.375 2.25C15.375 1.5625 14.8125 1 14.125 1C13.6562 1 13.2188 1.3125 13.0312 1.6875L9.96875 1.03125C9.8125 0.96875 9.6875 1.09375 9.625 1.25L8.6875 5.53125C7.03125 5.625 5.53125 6.125 4.4375 6.875C4.125 6.5625 3.6875 6.375 3.21875 6.375C1.5 6.375 0.90625 8.71875 2.5 9.5C2.4375 9.75 2.4375 10 2.4375 10.2812C2.4375 12.9062 5.375 15 9 15C12.625 15 15.5938 12.9062 15.5938 10.2812C15.5938 10 15.5625 9.75 15.5 9.5C17.0625 8.6875 16.4688 6.375 14.75 6.375ZM5.03125 9.65625C5.03125 8.96875 5.59375 8.4375 6.28125 8.4375C6.9375 8.4375 7.5 8.96875 7.5 9.65625C7.5 10.3438 6.9375 10.9062 6.28125 10.9062C5.59375 10.9062 5.03125 10.3438 5.03125 9.65625ZM11.7188 12.5938C10.5938 13.7188 7.375 13.7188 6.25 12.5938C6.125 12.4688 6.125 12.2812 6.25 12.1562C6.34375 12.0625 6.53125 12.0625 6.65625 12.1562C7.53125 13.0625 10.4062 13.0625 11.3125 12.1562C11.4062 12.0625 11.625 12.0625 11.7188 12.1562C11.8438 12.2812 11.8438 12.4688 11.7188 12.5938ZM11.6875 10.9062C11.0312 10.9062 10.4688 10.3438 10.4688 9.65625C10.4688 8.96875 11.0312 8.4375 11.6875 8.4375C12.375 8.4375 12.9375 8.96875 12.9375 9.65625C12.9375 10.3438 12.375 10.9062 11.6875 10.9062Z" fill="#000D3D"/>
</svg>
