<svg width="16" height="17" viewBox="0 0 16 17" fill="none" xmlns="http://www.w3.org/2000/svg">
<path d="M7.99181 1.02643C7.85054 1.02864 7.71592 1.08681 7.61749 1.18816C7.51907 1.28952 7.46487 1.42579 7.46681 1.56706V3.16706C7.46581 3.23773 7.47887 3.3079 7.50522 3.37348C7.53157 3.43906 7.5707 3.49875 7.62032 3.54909C7.66995 3.59942 7.72908 3.63938 7.79428 3.66666C7.85949 3.69394 7.92946 3.70799 8.00014 3.70799C8.07082 3.70799 8.1408 3.69394 8.206 3.66666C8.2712 3.63938 8.33034 3.59942 8.37996 3.54909C8.42958 3.49875 8.46871 3.43906 8.49506 3.37348C8.52142 3.3079 8.53447 3.23773 8.53347 3.16706V1.56706C8.53445 1.4957 8.5211 1.42488 8.49421 1.35878C8.46732 1.29267 8.42744 1.23264 8.37694 1.18223C8.32643 1.13182 8.26632 1.09205 8.20016 1.06529C8.13401 1.03853 8.06316 1.02532 7.99181 1.02643ZM3.09181 3.05977C2.9858 3.06 2.88226 3.09182 2.79442 3.15116C2.70657 3.2105 2.6384 3.29467 2.59861 3.39292C2.55882 3.49118 2.5492 3.59907 2.571 3.70281C2.59279 3.80656 2.64501 3.90145 2.72098 3.97539L3.85223 5.10664C3.90137 5.15783 3.96023 5.19869 4.02537 5.22684C4.0905 5.25499 4.1606 5.26986 4.23155 5.27059C4.30251 5.27131 4.37289 5.25786 4.43859 5.23104C4.50428 5.20422 4.56396 5.16456 4.61414 5.11439C4.66431 5.06421 4.70397 5.00453 4.73079 4.93884C4.75761 4.87314 4.77106 4.80276 4.77034 4.7318C4.76962 4.66085 4.75474 4.59075 4.72659 4.52562C4.69844 4.46048 4.65758 4.40162 4.60639 4.35247L3.47514 3.22122C3.42532 3.17001 3.36571 3.12932 3.29986 3.10159C3.23401 3.07385 3.16326 3.05963 3.09181 3.05977ZM12.8918 3.05977C12.7532 3.06389 12.6217 3.1218 12.5251 3.22122L11.3939 4.35247C11.3427 4.40162 11.3018 4.46048 11.2737 4.52562C11.2455 4.59075 11.2307 4.66085 11.23 4.7318C11.2292 4.80276 11.2427 4.87314 11.2695 4.93883C11.2963 5.00453 11.336 5.06421 11.3861 5.11438C11.4363 5.16456 11.496 5.20422 11.5617 5.23104C11.6274 5.25786 11.6978 5.2713 11.7687 5.27058C11.8397 5.26986 11.9098 5.25499 11.9749 5.22684C12.0401 5.19869 12.0989 5.15782 12.1481 5.10664L13.2793 3.97539C13.3564 3.90048 13.409 3.80403 13.4303 3.69869C13.4516 3.59334 13.4406 3.48402 13.3987 3.38504C13.3569 3.28606 13.286 3.20204 13.1956 3.144C13.1051 3.08596 12.9992 3.0566 12.8918 3.05977ZM8.00014 4.76706C7.01 4.76706 6.06041 5.16039 5.36028 5.86053C4.66014 6.56066 4.26681 7.51025 4.26681 8.50039C4.26681 9.49053 4.66014 10.4401 5.36028 11.1403C6.06041 11.8404 7.01 12.2337 8.00014 12.2337C8.99028 12.2337 9.93987 11.8404 10.64 11.1403C11.3401 10.4401 11.7335 9.49053 11.7335 8.50039C11.7335 7.51025 11.3401 6.56066 10.64 5.86053C9.93987 5.16039 8.99028 4.76706 8.00014 4.76706ZM1.06681 7.96706C0.996135 7.96606 0.925968 7.97911 0.860385 8.00547C0.794802 8.03182 0.735111 8.07095 0.68478 8.12057C0.63445 8.1702 0.594484 8.22933 0.567205 8.29453C0.539926 8.35974 0.525879 8.42971 0.525879 8.50039C0.525879 8.57107 0.539926 8.64105 0.567205 8.70625C0.594484 8.77145 0.63445 8.83059 0.68478 8.88021C0.735111 8.92983 0.794802 8.96896 0.860385 8.99531C0.925968 9.02167 0.996135 9.03472 1.06681 9.03372H2.66681C2.73748 9.03472 2.80765 9.02167 2.87323 8.99531C2.93881 8.96896 2.99851 8.92983 3.04884 8.88021C3.09917 8.83059 3.13913 8.77145 3.16641 8.70625C3.19369 8.64105 3.20774 8.57107 3.20774 8.50039C3.20774 8.42971 3.19369 8.35974 3.16641 8.29453C3.13913 8.22933 3.09917 8.1702 3.04884 8.12057C2.99851 8.07095 2.93881 8.03182 2.87323 8.00547C2.80765 7.97911 2.73748 7.96606 2.66681 7.96706H1.06681ZM13.3335 7.96706C13.2628 7.96606 13.1926 7.97911 13.1271 8.00547C13.0615 8.03182 13.0018 8.07095 12.9514 8.12057C12.9011 8.1702 12.8612 8.22933 12.8339 8.29453C12.8066 8.35974 12.7925 8.42971 12.7925 8.50039C12.7925 8.57107 12.8066 8.64105 12.8339 8.70625C12.8612 8.77145 12.9011 8.83059 12.9514 8.88021C13.0018 8.92983 13.0615 8.96896 13.1271 8.99531C13.1926 9.02167 13.2628 9.03472 13.3335 9.03372H14.9335C15.0041 9.03472 15.0743 9.02167 15.1399 8.99531C15.2055 8.96896 15.2652 8.92983 15.3155 8.88021C15.3658 8.83059 15.4058 8.77145 15.4331 8.70625C15.4604 8.64105 15.4744 8.57107 15.4744 8.50039C15.4744 8.42971 15.4604 8.35974 15.4331 8.29453C15.4058 8.22933 15.3658 8.1702 15.3155 8.12057C15.2652 8.07095 15.2055 8.03182 15.1399 8.00547C15.0743 7.97911 15.0041 7.96606 14.9335 7.96706H13.3335ZM4.21889 11.7327C4.08033 11.7368 3.94882 11.7947 3.85223 11.8941L2.72098 13.0254C2.66979 13.0745 2.62893 13.1334 2.60078 13.1985C2.57263 13.2637 2.55775 13.3338 2.55703 13.4047C2.55631 13.4757 2.56975 13.5461 2.59658 13.6118C2.6234 13.6774 2.66306 13.7371 2.71323 13.7873C2.76341 13.8375 2.82309 13.8771 2.88878 13.904C2.95447 13.9308 3.02486 13.9442 3.09581 13.9435C3.16677 13.9428 3.23686 13.9279 3.302 13.8998C3.36713 13.8716 3.426 13.8307 3.47514 13.7796L4.60639 12.6483C4.68346 12.5734 4.7361 12.4769 4.75741 12.3716C4.77872 12.2663 4.76771 12.1569 4.72582 12.058C4.68394 11.959 4.61312 11.875 4.52266 11.8169C4.43221 11.7589 4.32632 11.7295 4.21889 11.7327ZM11.7658 11.7327C11.6597 11.7327 11.556 11.7644 11.468 11.8236C11.38 11.8829 11.3116 11.9671 11.2717 12.0654C11.2318 12.1637 11.2221 12.2716 11.2439 12.3755C11.2656 12.4793 11.3179 12.5743 11.3939 12.6483L12.5251 13.7796C12.5743 13.8307 12.6332 13.8716 12.6983 13.8998C12.7634 13.9279 12.8335 13.9428 12.9045 13.9435C12.9754 13.9442 13.0458 13.9308 13.1115 13.904C13.1772 13.8771 13.2369 13.8375 13.2871 13.7873C13.3372 13.7371 13.3769 13.6774 13.4037 13.6117C13.4305 13.5461 13.444 13.4757 13.4432 13.4047C13.4425 13.3338 13.4277 13.2637 13.3995 13.1985C13.3714 13.1334 13.3305 13.0745 13.2793 13.0254L12.1481 11.8941C12.0984 11.8431 12.0389 11.8024 11.9733 11.7747C11.9076 11.747 11.837 11.7327 11.7658 11.7327ZM7.99181 13.2931C7.85054 13.2953 7.71592 13.3535 7.61749 13.4548C7.51907 13.5562 7.46487 13.6925 7.46681 13.8337V15.4337C7.46581 15.5044 7.47887 15.5746 7.50522 15.6401C7.53157 15.7057 7.5707 15.7654 7.62032 15.8158C7.66995 15.8661 7.72908 15.906 7.79428 15.9333C7.85949 15.9606 7.92946 15.9747 8.00014 15.9747C8.07082 15.9747 8.1408 15.9606 8.206 15.9333C8.2712 15.906 8.33034 15.8661 8.37996 15.8158C8.42958 15.7654 8.46871 15.7057 8.49506 15.6401C8.52142 15.5746 8.53447 15.5044 8.53347 15.4337V13.8337C8.53445 13.7624 8.5211 13.6915 8.49421 13.6254C8.46732 13.5593 8.42744 13.4993 8.37694 13.4489C8.32643 13.3985 8.26632 13.3587 8.20016 13.332C8.13401 13.3052 8.06316 13.292 7.99181 13.2931Z" fill="#EEF3F8"/>
</svg>
